<svg xmlns="http://www.w3.org/2000/svg" width="34" height="34" viewBox="0 0 34 34">
  <g id="Group_2246" data-name="Group 2246" transform="translate(10523 -644)">
    <rect id="Rectangle_401" data-name="Rectangle 401" width="34" height="34" transform="translate(-10523 644)" opacity="0"/>
    <g id="Group_2245" data-name="Group 2245" transform="translate(34 1)">
      <path id="XMLID_101_" d="M25.6,22.312a1.188,1.188,0,0,0-1.19-1.19H8.69a1.19,1.19,0,1,0,0,2.381H24.411A1.188,1.188,0,0,0,25.6,22.312Z" transform="translate(-10535.685 632.761) rotate(45)"/>
      <path id="XMLID_101_2" data-name="XMLID_101_" d="M18.1,1.191a1.188,1.188,0,0,1-1.19,1.19H1.19A1.19,1.19,0,0,1,1.19,0H16.911A1.188,1.188,0,0,1,18.1,1.191Z" transform="translate(-10532.517 654.684) rotate(135)"/>
    </g>
  </g>
</svg>
