<svg xmlns="http://www.w3.org/2000/svg" width="34" height="34" viewBox="0 0 34 34">
  <g id="Group_2245" data-name="Group 2245" transform="translate(10559 -644)">
    <rect id="Rectangle_401" data-name="Rectangle 401" width="34" height="34" transform="translate(-10559 644)" opacity="0"/>
    <path id="XMLID_101_" d="M20.411,12.881H8.69a1.19,1.19,0,0,1,0-2.381H20.411a1.19,1.19,0,0,1,0,2.381ZM21.6,17a1.188,1.188,0,0,0-1.19-1.19H8.69a1.19,1.19,0,0,0,0,2.381H20.411A1.188,1.188,0,0,0,21.6,17Zm0,5.311a1.188,1.188,0,0,0-1.19-1.19H8.69a1.19,1.19,0,1,0,0,2.381H20.411A1.188,1.188,0,0,0,21.6,22.312Z" transform="translate(-10556.5 643.5)"/>
  </g>
</svg>
