<svg xmlns="http://www.w3.org/2000/svg" width="766" height="766" viewBox="0 0 766 766">
  <g id="Group_2328" data-name="Group 2328" transform="translate(-203 -1256)">
    <rect id="Rectangle_400" data-name="Rectangle 400" width="766" height="766" transform="translate(203 1256)" fill="#fff" opacity="0"/>
    <g id="Layer_2" data-name="Layer 2" transform="translate(267.248 1330.387)">
      <g id="Layer_1" data-name="Layer 1" transform="translate(-0.001 0.002)">
        <path id="Path_1456" data-name="Path 1456" d="M418.508,903.685S374.546,754.62,371,721.742s21.064-22.69,21.064-22.69-20.686-62.653-5.729-77.525,28.443,12.829,28.443,12.829,4.529-76.06,20.478-76.107c29.705-.052,29.119,82.952,29.119,82.952s7.563-32.5,23.489-23.588c23.99,13.435-10.4,78.555-10.4,78.555s30.566.024,41.3,15.434C538.038,739.275,418.508,903.685,418.508,903.685Z" transform="translate(-195.439 -294.359)" fill="#fae0b2"/>
        <path id="Path_1457" data-name="Path 1457" d="M247.857,1002.571S121.076,981.37,93.5,958.907s-.284-32.594-.284-32.594-63.689-32.65-62.951-54.849,32.381-10.915,32.381-10.915S8.991,799.357,21.683,787.737c23.664-21.65,85.7,41.963,85.7,41.963s-18.436-30.254.979-35.037c29.256-7.218,50.85,67.371,50.85,67.371s-5.488-29.455,14.687-25.526C210.1,843.541,247.857,1002.571,247.857,1002.571Z" transform="translate(-10.408 -412.995)" fill="#00d498"/>
        <path id="Path_1458" data-name="Path 1458" d="M176.068,836.511c-20.223-3.659-14.687,25.526-14.687,25.526s-21.594-74.584-50.85-67.366c-19.381,4.789-.979,35.037-.979,35.037s-62.039-63.589-85.7-41.963l225.744,214.867C245.576,982.092,209.976,842.642,176.068,836.511Z" transform="translate(-12.575 -413.004)" fill="#0caf7d"/>
        <path id="Path_1459" data-name="Path 1459" d="M273.516,1167.615s-66.766-67.9-100.39-74.968-27.578,16.852-27.578,16.852-66.7-58.337-82.167-44.2,1.262,27.781,1.262,27.781-55.563-9.847-63.518,8.386c-12.224,28.018,79.165,43.272,79.165,43.272s-38.29,2.652-29.417,20.218C64.288,1191.45,273.516,1167.615,273.516,1167.615Z" transform="translate(0.001 -560.554)" fill="#0b0754"/>
        <path id="Path_1460" data-name="Path 1460" d="M2.38,1101.138c7.956-18.233,63.518-8.386,63.518-8.386s-16.72-13.647-1.262-27.781,80.1,36.266,80.1,36.266-15.24-29.129,18.384-22.057,111.655,88.109,111.655,88.109Z" transform="translate(-1.255 -560.228)" fill="#4951ec"/>
        <path id="Path_1461" data-name="Path 1461" d="M823.151,1215.749H453.49c-14.115,0-25.56-11.87-25.56-26.51v-15.765c0-14.654,11.444-26.514,25.56-26.514H823.151a52.363,52.363,0,0,0-.681,67.99Z" transform="translate(-225.642 -604.779)" fill="#fa7167"/>
        <path id="Path_1462" data-name="Path 1462" d="M994.685,1163.63H789.674c-14.12,0-25.564,11.87-25.564,26.515h0c0,14.654,11.444,26.514,25.564,26.514H994.7A52.609,52.609,0,0,1,994.685,1163.63Z" transform="translate(-402.905 -613.568)" fill="#dde8fe"/>
        <path id="Path_1463" data-name="Path 1463" d="M738.435,1043.464a1.533,1.533,0,0,0-1.522-2.174H541.338c-15.33,0-27.758,11.184-27.758,24.978h0c0,13.8,12.428,24.983,27.758,24.983H736.97a1.539,1.539,0,0,0,1.522-2.189h0a47.862,47.862,0,0,1-.057-45.6Z" transform="translate(-270.804 -549.06)" fill="#4951ec"/>
        <path id="Path_1464" data-name="Path 1464" d="M850.318,1051.12H753.412c-17.991,0-25.306,9.131-25.306,20.694s7.315,21.174,25.306,21.174h97.549a47.786,47.786,0,0,1-.643-41.868Z" transform="translate(-383.921 -554.243)" fill="#dde8fe"/>
        <path id="Path_1465" data-name="Path 1465" d="M914.138,1072.12H901.521c-2.713,0-4.911.908-4.911,2.033v.184h17.538Z" transform="translate(-472.771 -565.316)" fill="#ffdc60"/>
        <path id="Path_1466" data-name="Path 1466" d="M930.185,1077.225c0-2.836-3.309-5.105-7.365-5.105h-16.2c3.082,0,5.588,1.73,5.588,3.871l-.08,54.731,8.953-7.039,9.123,7.039Z" transform="translate(-478.049 -565.316)" fill="#f7d943"/>
        <path id="Path_1467" data-name="Path 1467" d="M765.871,989.1h-113.8c-10.092,0-18.275-9.71-18.275-21.688h0c0-11.979,8.183-21.688,18.275-21.688h113.8c-8.7,12.026-9.038,29.663-.813,42.142Z" transform="translate(-334.194 -498.667)" fill="#dde8fe"/>
        <path id="Path_1468" data-name="Path 1468" d="M556.108,964.9h0c0-11.979,8.372-21.688,18.7-21.688H690.335a1.049,1.049,0,0,0,.945-1.135h0a1.045,1.045,0,0,0-.945-1.111H507.069c-11.4,0-20.639,10.716-20.639,23.933h0c0,13.236,9.241,23.933,20.639,23.933H690.33a1.049,1.049,0,0,0,.969-1.111h0a1.054,1.054,0,0,0-.969-1.135H574.808C564.48,986.591,556.108,976.882,556.108,964.9Z" transform="translate(-256.488 -496.163)" fill="#0b0754"/>
        <path id="Path_1469" data-name="Path 1469" d="M851.588,968.27H838.966c-2.718,0-4.916.893-4.916,1.995v.18h17.537Z" transform="translate(-439.784 -510.558)" fill="#fa7167"/>
        <path id="Path_1470" data-name="Path 1470" d="M867.645,973.276c0-2.765-3.309-5.006-7.365-5.006h-16.2c3.087,0,5.587,1.7,5.587,3.782l-.076,53.672,8.948-6.9,9.123,6.9Z" transform="translate(-445.072 -510.557)" fill="#ff6ad8"/>
        <path id="Path_1471" data-name="Path 1471" d="M1299.286,414.2a4.97,4.97,0,0,1-1.092,0c-3.162-.373-5.5-3.517-5.228-7.024l10.6-135.338c.274-3.508,3.059-6.046,6.221-5.672s5.507,3.522,5.228,7.029l-10.594,135.338A5.943,5.943,0,0,1,1299.286,414.2Z" transform="translate(-681.752 -140.329)" fill="#619aff"/>
        <path id="Path_1472" data-name="Path 1472" d="M1304.36,414.785a5.854,5.854,0,0,1-1.149,0c-3.338-.4-5.805-3.716-5.517-7.417l11.18-142.8c.293-3.7,3.229-6.382,6.566-5.985s5.81,3.711,5.516,7.412l-11.18,142.8A6.262,6.262,0,0,1,1304.36,414.785Z" transform="translate(-684.245 -136.33)" fill="#4951ec"/>
        <path id="Path_1473" data-name="Path 1473" d="M984.31,587.639v.317h0c.525,5.81,5.03,10.154,10.055,9.7l141.875-12.7c5.025-.449,8.674-5.526,8.15-11.345a4.955,4.955,0,0,0-.094-.728Z" transform="translate(-519.014 -302.079)" fill="#4951ec"/>
        <path id="Path_1474" data-name="Path 1474" d="M1115.794,923.334c-9.289,5.153-37.685-3.881-37.685-4.694-.411,7.762-31.8,83.722-31.8,83.722v23.371s64.681,3.082,63.75-2.633-4.406-2-17.311-12.792c-1.144-.945-19.263-5.162-14.361-15.888C1088.287,972.822,1109.256,936.816,1115.794,923.334Z" transform="translate(-551.706 -484.388)" fill="#fb9390"/>
        <path id="Path_1475" data-name="Path 1475" d="M1039.629,1119.908h70.8c2.557-.265,3.153-2.363,2.25-3.6-1.858-2.6-15.425-8.74-24.548-12.811-15.888,1.853-43.816-4.254-46.373-7.875C1035.039,1104.625,1038.206,1119.591,1039.629,1119.908Z" transform="translate(-547.128 -577.708)" fill="#fa4067"/>
        <path id="Path_1476" data-name="Path 1476" d="M1008.731,725.7c-.946-2.874,60.98-29.148,63.731-26.146,4.9,5.313-33.478,104.994-33.478,104.994l44.118,13.477s45.853-115.162,43.962-136.226-24.893-45-74.689-29.682S1008.731,725.7,1008.731,725.7Z" transform="translate(-531.763 -341.294)" fill="#dca462"/>
        <path id="Path_1477" data-name="Path 1477" d="M1231.916,953.353c-10.452-1.891-24-2.444-34.844-2.633,1.276,9.657,7.483,59.169,6.349,62.214a37.166,37.166,0,0,1-14.791,18.1s48.08,43.376,50.982,38.365-2.146-4.34-5.285-20.865c-.279-1.47-7.228-24.539-7.658-36.98C1225.847,987.814,1231.557,966.532,1231.916,953.353Z" transform="translate(-626.749 -501.304)" fill="#fb9390"/>
        <path id="Path_1478" data-name="Path 1478" d="M961.936,610.083c-6.708-3.574-24.108-3.7-43.267-2.458a439.194,439.194,0,0,0-109.688,21.546l-23.754,7.847.08-24.359s-75.6-12.65-78.22,6.112c-3.961,28.211.945,85.485,26.141,98.268,78.224,39.684,187.851-63.287,188.258-49.81.53,18.091,15.784,85.414,19.684,114.869,10.844.189,29.478.18,37.557-1.678C980.292,722.7,981.048,620.27,961.936,610.083Z" transform="translate(-372.194 -320.018)" fill="#fcbe74"/>
        <path id="Path_1479" data-name="Path 1479" d="M1185.472,1101.305l54.045,43.173c2.141,1.418,3.919.189,4.023-1.361.213-3.191-6.391-16.545-10.872-25.465-13.468-8.636-31.227-31.152-30.906-35.572C1196.094,1086.887,1184.555,1100.175,1185.472,1101.305Z" transform="translate(-625.057 -570.568)" fill="#fa4067"/>
        <path id="Path_1480" data-name="Path 1480" d="M724.568,54.6c-1.815-16.6-3.73-33.255-17.49-45.418C695.95-.661,681.8-2.329,667.8,2.937,628.139,17.86,648.58,53.077,598,88.587c-15.713,11.038-33.033,18.587-44.865,33.444-16.545,20.8-10.305,45.815,4.789,62.516,72.221,79.917,152.833-28.013,158.619-53.918C720.848,111.353,725.736,65.283,724.568,54.6Z" transform="translate(-286.481 -0.002)" fill="#0b0754"/>
        <path id="Path_1481" data-name="Path 1481" d="M794.059,272.884a220.622,220.622,0,0,0-11.974-19.5C775.964,242.507,760.151,237,760.151,237s-5.29.109-11.345.407a4.85,4.85,0,0,1-1.144,2.014c-2.283,1.711-15.358-.473-23.806,5.238-28.311,24.269-20.483,141.889-18.256,179.064l86.223.789s-10.872-79.931,6.618-100.47C810.661,309.741,802.809,289,794.059,272.884Z" transform="translate(-370.636 -124.968)" fill="#746add"/>
        <path id="Path_1482" data-name="Path 1482" d="M804.177,148.179s-4.727,33.841-8.036,42.071,18.195,25.815,36.1,31.152-5.474-18.166-4.727-26.945S831.49,144,831.49,144Z" transform="translate(-419.615 -75.93)" fill="#fb9390"/>
        <path id="Path_1483" data-name="Path 1483" d="M838.312,155.96c.525-6.887.9-11.96.9-11.96L811.9,148.16s-.69,3.976-1.451,9.6C821.526,164.2,831.481,162.171,838.312,155.96Z" transform="translate(-427.34 -75.93)" opacity="0.2"/>
        <path id="Path_1484" data-name="Path 1484" d="M806.092,21.721A31.056,31.056,0,0,0,788.678,34.3C782.027,44.439,777.47,74.3,799.366,88.241s38.918-5.777,39.2-25.011S834.729,18.332,806.092,21.721Z" transform="translate(-412.965 -11.294)" fill="#fb9390"/>
        <path id="Path_1485" data-name="Path 1485" d="M898.843,85.307c-1.891,4.642-5.573,7.521-8.277,6.434s-3.38-5.734-1.513-10.4,5.564-7.5,8.277-6.41S900.71,80.665,898.843,85.307Z" transform="translate(-468.23 -39.389)" fill="#fb9390"/>
        <path id="Path_1486" data-name="Path 1486" d="M796.455,20.727s-13.709,30.788-25.782,33.534S758.79,72.5,758.79,72.5s.269-35.775,11.572-43.962S796.455,20.727,796.455,20.727Z" transform="translate(-400.1 -10.929)" fill="#0b0754"/>
        <path id="Path_1487" data-name="Path 1487" d="M779.718,97.069c1.584,5,.132,9.927-3.247,11s-7.407-2.108-8.982-7.091-.137-9.927,3.243-11S778.129,92.068,779.718,97.069Z" transform="translate(-404.35 -47.336)" fill="#fb9390"/>
        <path id="Path_1488" data-name="Path 1488" d="M922.953,469.368c-5.172-1.891-12.872-2.1-12.763-2.789.52-2.761,23.371,6.1,20.284,2.07-1.716-2.245-18.819-10.2-22.979-8.887-4.032,1.276-30.518,8.707-30.518,8.707L804.614,451.5s-18.27-41.514-20.052-77.184c-15.1,2.042-25.385,5.777-38.512,13.061,6.33,34.111,21.721,89.4,38.739,99.766,7.152,4.368,92.581-5.2,92.581-5.2s18.828-1.328,21.9-2.51c2.335-.9,8.343-4.283,11.61-5.2,7.426-2.1,20.658,3.177,20.7,1.725C931.6,474.88,928.238,471.278,922.953,469.368Z" transform="translate(-393.382 -197.375)" fill="#fb9390"/>
        <path id="Path_1489" data-name="Path 1489" d="M776.638,264.9c-.695-10.976-4.855-21.57-16.545-24.983a23.634,23.634,0,0,0-21.144,4.633c-6.878,5.621-8.8,14.654-8.769,23.163.071,19.381,1.395,39.462,4.93,58.536,13.127-7.284,28.448-11.662,43.551-13.709C778.67,312.434,777.56,279.406,776.638,264.9Z" transform="translate(-385.014 -126.063)" fill="#5b4dee"/>
        <path id="Path_1490" data-name="Path 1490" d="M714.261,842.58H423.07a16.37,16.37,0,0,0-16.37,16.375v13.77a16.365,16.365,0,0,0,16.384,16.38H714.275l-.151-.156A33.345,33.345,0,0,1,714.261,842.58Z" transform="translate(-214.447 -444.283)" fill="#fa4067"/>
        <path id="Path_1491" data-name="Path 1491" d="M854.54,857.15H698.88a16.37,16.37,0,0,0-16.37,16.37h0a16.37,16.37,0,0,0,16.37,16.375H854.535A33.388,33.388,0,0,1,854.54,857.15Z" transform="translate(-359.879 -451.965)" fill="#dde8fe"/>
      </g>
    </g>
  </g>
</svg>
